<?xml version="1.0" encoding="utf-8"?>
<!-- Generator: Adobe Illustrator 16.0.0, SVG Export Plug-In . SVG Version: 6.00 Build 0)  -->
<!DOCTYPE svg PUBLIC "-//W3C//DTD SVG 1.1//EN" "http://www.w3.org/Graphics/SVG/1.1/DTD/svg11.dtd">
<svg version="1.1" id="Layer_1" xmlns="http://www.w3.org/2000/svg" xmlns:xlink="http://www.w3.org/1999/xlink" x="0px" y="0px"
	 width="400.926px" height="161.5px" viewBox="0 0 400.926 161.5" enable-background="new 0 0 400.926 161.5" xml:space="preserve">
<g>
	<defs>
		<rect id="SVGID_1_" x="-1" y="-48.141" width="400.926" height="210.641"/>
	</defs>
	<clipPath id="SVGID_2_">
		<use xlink:href="#SVGID_1_"  overflow="visible"/>
	</clipPath>
	<path clip-path="url(#SVGID_2_)" fill="#939393" d="M111.828,142.574V56.778V142.574z"/>
	<g clip-path="url(#SVGID_2_)">
		<defs>
			<path id="SVGID_3_" d="M0,50.018c0,0,7.294,83.675,72.519,111.482c4.082-2.039,80.841-48.762,80.563-149.781
				c-15.652-7.856-31.215-10.991-46.081-10.991C48.057,0.725,0,50.018,0,50.018z"/>
		</defs>
		<clipPath id="SVGID_4_">
			<use xlink:href="#SVGID_3_"  overflow="visible"/>
		</clipPath>
		
			<linearGradient id="SVGID_5_" gradientUnits="userSpaceOnUse" x1="0.0503" y1="161.002" x2="0.9503" y2="161.002" gradientTransform="matrix(40.8696 210.3203 -183.069 35.5741 29530.2715 -5753.8423)">
			<stop  offset="0" style="stop-color:#BCBEC0"/>
			<stop  offset="0.25" style="stop-color:#DEDEDF"/>
			<stop  offset="0.51" style="stop-color:#FFFFFF"/>
			<stop  offset="0.75" style="stop-color:#E8E9EA"/>
			<stop  offset="1" style="stop-color:#D1D3D4"/>
		</linearGradient>
		<polygon clip-path="url(#SVGID_4_)" fill="url(#SVGID_5_)" points="-30.105,6.575 5.58,190.217 183.465,155.65 147.78,-27.992 		
			"/>
	</g>
	<g clip-path="url(#SVGID_2_)">
		<defs>
			<path id="SVGID_6_" d="M9.632,53.934c0,0,6.377,73.142,63.389,97.448c3.579-1.783,70.67-42.621,70.424-130.929
				c-13.685-6.867-27.282-9.607-40.28-9.607C51.646,10.843,9.632,53.934,9.632,53.934"/>
		</defs>
		<clipPath id="SVGID_7_">
			<use xlink:href="#SVGID_6_"  overflow="visible"/>
		</clipPath>
		
			<linearGradient id="SVGID_8_" gradientUnits="userSpaceOnUse" x1="0.0542" y1="160.998" x2="0.9542" y2="160.998" gradientTransform="matrix(87.0295 188.3776 -173.7693 80.2805 28009.6172 -12938.7998)">
			<stop  offset="0" style="stop-color:#00AEEF"/>
			<stop  offset="0.22" style="stop-color:#0095DA"/>
			<stop  offset="0.33" style="stop-color:#00A2E5"/>
			<stop  offset="0.44" style="stop-color:#00AEEF"/>
			<stop  offset="0.72" style="stop-color:#0085CD"/>
			<stop  offset="1" style="stop-color:#005BAA"/>
		</linearGradient>
		<polygon clip-path="url(#SVGID_7_)" fill="url(#SVGID_8_)" points="-43.875,35.563 33.213,202.422 197.199,126.661 
			120.111,-40.197 		"/>
	</g>
	<g clip-path="url(#SVGID_2_)">
		<defs>
			<path id="SVGID_9_" d="M9.632,53.934c0,0,65.882-67.564,133.813-33.48c0.246,88.308-66.846,129.146-70.424,130.929
				C16.009,127.075,9.632,53.934,9.632,53.934z M9.074,53.697c0,0,6.429,73.758,63.917,98.277
				c3.608-1.806,71.265-42.986,71.015-132.034c-13.794-6.922-27.512-9.685-40.613-9.685C51.438,10.253,9.074,53.697,9.074,53.697z"
				/>
		</defs>
		<clipPath id="SVGID_10_">
			<use xlink:href="#SVGID_9_"  overflow="visible"/>
		</clipPath>
		
			<linearGradient id="SVGID_11_" gradientUnits="userSpaceOnUse" x1="0.0405" y1="161" x2="0.9609" y2="161" gradientTransform="matrix(182.2829 130.3464 -131.4969 183.8919 21156.1563 -29602.791)">
			<stop  offset="0" style="stop-color:#BCBEC0"/>
			<stop  offset="0.08" style="stop-color:#DEDEDF"/>
			<stop  offset="0.15" style="stop-color:#FFFFFF"/>
			<stop  offset="0.51" style="stop-color:#FFFFFF"/>
			<stop  offset="0.83" style="stop-color:#FFFFFF"/>
			<stop  offset="0.92" style="stop-color:#E8E9EA"/>
			<stop  offset="1" style="stop-color:#D1D3D4"/>
		</linearGradient>
		<polygon clip-path="url(#SVGID_10_)" fill="url(#SVGID_11_)" points="-69.281,95.944 98.52,215.935 222.611,42.399 
			54.811,-77.591 		"/>
	</g>
	<g clip-path="url(#SVGID_2_)">
		<defs>
			<path id="SVGID_12_" d="M54.528,27.466c0,0-24.672,8.572-33.912,19.001c-3.67,27.143,7.93,50.23,21.9,73.288
				c9.191-2.253,12.012-4.84,12.012-4.84S46.047,66.854,54.528,27.466z"/>
		</defs>
		<clipPath id="SVGID_13_">
			<use xlink:href="#SVGID_12_"  overflow="visible"/>
		</clipPath>
		<defs>
			<filter id="Adobe_OpacityMaskFilter" filterUnits="userSpaceOnUse" x="-17.791" y="13.32" width="107.056" height="120.581">
				<feColorMatrix  type="matrix" values="1 0 0 0 0  0 1 0 0 0  0 0 1 0 0  0 0 0 1 0"/>
			</filter>
		</defs>
		<mask maskUnits="userSpaceOnUse" x="-17.791" y="13.32" width="107.056" height="120.581" id="SVGID_14_">
			<g filter="url(#Adobe_OpacityMaskFilter)">
				<g>
					<defs>
						<rect id="SVGID_15_" x="16.905" y="-1885.113" width="1469.666" height="2004.868"/>
					</defs>
					<clipPath id="SVGID_16_" clip-path="url(#SVGID_13_)">
						<use xlink:href="#SVGID_15_"  overflow="visible"/>
					</clipPath>
					
						<linearGradient id="SVGID_17_" gradientUnits="userSpaceOnUse" x1="0.002" y1="161.002" x2="1.002" y2="161.002" gradientTransform="matrix(1005.7217 2215.4771 -1973.1647 895.7233 317930.0938 -146209.8125)">
						<stop  offset="0" style="stop-color:#636363"/>
						<stop  offset="0.02" style="stop-color:#898989"/>
						<stop  offset="0.03" style="stop-color:#ACACAC"/>
						<stop  offset="0.51" style="stop-color:#636363"/>
						<stop  offset="0.99" style="stop-color:#000000"/>
						<stop  offset="1" style="stop-color:#000000"/>
					</linearGradient>
					<polygon clip-path="url(#SVGID_16_)" fill="url(#SVGID_17_)" points="-737.706,-1542.556 268.016,672.921 2241.181,-222.802 
						1235.459,-2438.279 					"/>
				</g>
			</g>
		</mask>
		
			<linearGradient id="SVGID_18_" gradientUnits="userSpaceOnUse" x1="0.0122" y1="161.4854" x2="0.9922" y2="161.4854" gradientTransform="matrix(1005.7216 2215.4771 -1973.1647 895.7233 317929.5938 -146209.8125)">
			<stop  offset="0" style="stop-color:#20C4F4"/>
			<stop  offset="0.02" style="stop-color:#24C5F4"/>
			<stop  offset="0.03" style="stop-color:#28C6F4"/>
			<stop  offset="0.51" style="stop-color:#94E3FA"/>
			<stop  offset="0.99" style="stop-color:#FFFFFF"/>
			<stop  offset="1" style="stop-color:#FFFFFF"/>
		</linearGradient>
		<polygon clip-path="url(#SVGID_13_)" mask="url(#SVGID_14_)" fill="url(#SVGID_18_)" points="-17.791,43.235 23.367,133.901 
			89.265,103.986 48.106,13.32 		"/>
	</g>
	<g clip-path="url(#SVGID_2_)">
		<defs>
			<path id="SVGID_19_" d="M107.883,13.252c0,0,23.586,2.909,32.833,13.338c3.657,27.146-7.937,50.239-21.917,73.297
				c-9.182-2.26-12.005-4.84-12.005-4.84S116.361,52.641,107.883,13.252z"/>
		</defs>
		<clipPath id="SVGID_20_">
			<use xlink:href="#SVGID_19_"  overflow="visible"/>
		</clipPath>
		<defs>
			<filter id="Adobe_OpacityMaskFilter_1_" filterUnits="userSpaceOnUse" x="74.186" y="-0.892" width="102.796" height="114.925">
				<feColorMatrix  type="matrix" values="1 0 0 0 0  0 1 0 0 0  0 0 1 0 0  0 0 0 1 0"/>
			</filter>
		</defs>
		<mask maskUnits="userSpaceOnUse" x="74.186" y="-0.892" width="102.796" height="114.925" id="SVGID_21_">
			<g filter="url(#Adobe_OpacityMaskFilter_1_)">
				<g>
					<defs>
						<rect id="SVGID_22_" x="104.836" y="-1908.499" width="1482.101" height="2008.387"/>
					</defs>
					<clipPath id="SVGID_23_" clip-path="url(#SVGID_20_)">
						<use xlink:href="#SVGID_22_"  overflow="visible"/>
					</clipPath>
					
						<linearGradient id="SVGID_24_" gradientUnits="userSpaceOnUse" x1="0" y1="161.001" x2="1" y2="161.001" gradientTransform="matrix(-1009.1707 2223.0752 -1984.7997 -901.0051 320905.1563 143045.8125)">
						<stop  offset="0" style="stop-color:#636363"/>
						<stop  offset="0.02" style="stop-color:#898989"/>
						<stop  offset="0.03" style="stop-color:#ACACAC"/>
						<stop  offset="0.51" style="stop-color:#636363"/>
						<stop  offset="0.99" style="stop-color:#000000"/>
						<stop  offset="1" style="stop-color:#000000"/>
					</linearGradient>
					<polygon clip-path="url(#SVGID_23_)" fill="url(#SVGID_24_)" points="358.072,-2466.346 -651.099,-243.271 1333.701,657.734 
						2342.872,-1565.341 					"/>
				</g>
			</g>
		</mask>
		
			<linearGradient id="SVGID_25_" gradientUnits="userSpaceOnUse" x1="-4.882813e-004" y1="161.1191" x2="0.9995" y2="161.1191" gradientTransform="matrix(-1009.1708 2223.0752 -1984.7997 -901.0051 320905.1563 143045.8125)">
			<stop  offset="0" style="stop-color:#20C4F4"/>
			<stop  offset="0.02" style="stop-color:#24C5F4"/>
			<stop  offset="0.03" style="stop-color:#28C6F4"/>
			<stop  offset="0.51" style="stop-color:#94E3FA"/>
			<stop  offset="0.99" style="stop-color:#FFFFFF"/>
			<stop  offset="1" style="stop-color:#FFFFFF"/>
		</linearGradient>
		<polygon clip-path="url(#SVGID_20_)" mask="url(#SVGID_21_)" fill="url(#SVGID_25_)" points="113.215,-0.892 74.186,85.086 
			137.952,114.033 176.981,28.056 		"/>
	</g>
	<path opacity="0.1" clip-path="url(#SVGID_2_)" fill="#FFFFFF" d="M95.322,99.123c-6.417,0.188-12.936-0.227-19.466-1.277
		c1.449-4.581,2.954-9.182,4.506-13.798c4.961,1.644,10.016,2.816,15.096,3.523C95.37,91.449,95.325,95.301,95.322,99.123"/>
	<path opacity="0.1" clip-path="url(#SVGID_2_)" fill="#FFFFFF" d="M117.804,95.941c-6.091,1.579-12.365,2.59-18.749,3.006
		c-0.252-3.642-0.463-7.314-0.635-11.017c5.096,0.524,10.203,0.597,15.286,0.21C115.036,90.779,116.404,93.38,117.804,95.941"/>
	<path opacity="0.1" clip-path="url(#SVGID_2_)" fill="#FFFFFF" d="M95.502,112.421c-7.969,1.255-16.179,1.748-24.523,1.427
		c1.333-4.532,2.71-9.088,4.147-13.659c6.792,0.946,13.555,1.227,20.205,0.889C95.341,104.89,95.402,108.67,95.502,112.421"/>
	<path opacity="0.1" clip-path="url(#SVGID_2_)" fill="#FFFFFF" d="M122.845,104.768c-7.25,2.996-14.862,5.295-22.734,6.842
		c-0.347-3.566-0.658-7.169-0.924-10.8c6.601-0.577,13.072-1.776,19.333-3.557C119.93,99.795,121.37,102.302,122.845,104.768"/>
	<g clip-path="url(#SVGID_2_)">
		<defs>
			<path id="SVGID_26_" d="M101.156,45.219c-0.078,1.507-0.176,2.993-0.289,4.471c-0.483,5.404-0.967,10.802-1.44,16.2
				c-0.782,7.438-1.537,14.874-2.279,22.315c-0.428,3.343-0.856,6.691-1.278,10.047c3.44,0.123,5.555,0.237,6.339,0.292
				c2.036,0.166,4.076,0.347,6.108,0.542c0.126-1.936,0.234-3.411,0.311-4.436c0.211-2.69,0.625-6.905,1.258-12.644
				c0.6-5.402,1.216-10.803,1.829-16.201c0.59-5.07,1.297-10.356,2.129-15.883c1.378,0.123,2.96,0.236,4.744,0.34
				c1.786,0.121,3.553,0.272,5.311,0.46c1.99,0.21,3.518,0.496,4.575,0.833c1.05,0.337,1.984,0.862,2.804,1.563
				c0.814,0.704,1.385,1.579,1.729,2.626c0.337,1.043,0.431,2.175,0.285,3.349c-0.253,2.003-1.031,3.731-2.324,5.187
				c-1.284,1.46-2.883,2.426-4.805,2.918c-1.916,0.497-4.111,0.601-6.62,0.36c-1.835-0.191-3.667-0.562-5.508-1.086
				c0.625,2.648,1.137,5.479,1.517,8.497c2.253,0.6,4.377,1.021,6.39,1.238c4.114,0.454,7.936,0.179,11.51-0.829
				c3.582-1.006,6.559-2.82,8.948-5.492c2.376-2.659,3.874-5.804,4.448-9.429c0.366-2.379,0.259-4.694-0.363-6.918
				c-0.564-1.984-1.56-3.768-3.009-5.334c-1.443-1.569-3.223-2.82-5.33-3.738c-1.987-0.849-5.187-1.569-9.594-2.075
				c-2.136-0.243-5.019-0.516-8.672-0.788c-3.639-0.259-6.485-0.464-8.53-0.613c-2.555-0.198-5.875-0.473-9.97-0.762
				C101.295,42.454,101.22,44.114,101.156,45.219z"/>
		</defs>
		<clipPath id="SVGID_27_">
			<use xlink:href="#SVGID_26_"  overflow="visible"/>
		</clipPath>
		
			<linearGradient id="SVGID_28_" gradientUnits="userSpaceOnUse" x1="0" y1="161.0088" x2="1" y2="161.0088" gradientTransform="matrix(0 118.7742 -51.3419 0 8388.0293 5.1875)">
			<stop  offset="0" style="stop-color:#BCBEC0"/>
			<stop  offset="0.18" style="stop-color:#DEDEDF"/>
			<stop  offset="0.36" style="stop-color:#FFFFFF"/>
			<stop  offset="0.51" style="stop-color:#FFFFFF"/>
			<stop  offset="0.58" style="stop-color:#FDFDFD"/>
			<stop  offset="0.66" style="stop-color:#FCFCFC"/>
			<stop  offset="0.83" style="stop-color:#E6E7E8"/>
			<stop  offset="1" style="stop-color:#D1D3D4"/>
		</linearGradient>
		<rect x="95.871" y="40.233" clip-path="url(#SVGID_27_)" fill="url(#SVGID_28_)" width="51.342" height="58.854"/>
	</g>
	<g clip-path="url(#SVGID_2_)">
		<defs>
			<path id="SVGID_29_" d="M33.653,40.706h-0.128h-0.129h-0.113H33.17c-2.332,0.007-4.538,0.124-6.611,0.341
				c-5.087,0.538-9.221,1.721-12.368,3.468c-3.151,1.764-5.369,3.937-6.676,6.508c-1.31,2.57-1.75,5.177-1.352,7.816
				c0.208,1.434,0.635,2.756,1.252,3.959c0.616,1.196,1.5,2.356,2.658,3.498c1.148,1.135,2.75,2.373,4.764,3.735
				c0.904,0.615,2.515,1.641,4.823,3.083c4.821,3.003,8.096,5.227,9.938,6.613c1.429,0.986,2.464,1.981,3.128,2.964
				c0.451,0.732,0.713,1.581,0.811,2.542c0.113,1.238-0.166,2.409-0.82,3.488c-0.665,1.079-1.757,1.987-3.284,2.71
				c-1.531,0.727-3.204,1.2-5.032,1.423c-4.562,0.568-8.235-0.291-14.243-1.89c0.792,2.637,2.75,7.396,4.412,11.131
				c4.023,0.253,3.781-0.104,6.199-0.123c2.413-0.011,4.517-0.121,6.296-0.328c2.718-0.314,5.259-0.872,7.642-1.628
				c2.387-0.771,4.549-1.919,6.504-3.449c1.952-1.53,3.415-3.385,4.377-5.589c0.972-2.188,1.394-4.478,1.225-6.861
				c-0.062-1.027-0.23-1.986-0.512-2.886c-0.282-0.917-0.671-1.792-1.177-2.647c-0.493-0.837-1.176-1.722-2.026-2.633
				c-0.859-0.901-1.874-1.822-3.057-2.795c-1.19-0.96-2.523-1.926-4.027-2.902c-1.987-1.413-4.004-2.823-6.031-4.217
				c-0.989-0.522-2.185-1.213-3.598-2.079c-1.414-0.858-2.51-1.621-3.284-2.285c-0.755-0.665-1.303-1.223-1.628-1.656
				c-0.314-0.432-0.573-0.889-0.768-1.368c-0.195-0.471-0.321-0.935-0.376-1.392c-0.191-1.663,0.586-3.242,2.405-4.73
				c1.799-1.491,4.241-2.398,7.318-2.706c4.126-0.409,8.727,0.044,13.697,1.409c-0.713-3.763-1.264-7.128-1.637-10.063
				C39.136,40.865,36.315,40.715,33.653,40.706"/>
		</defs>
		<clipPath id="SVGID_30_">
			<use xlink:href="#SVGID_29_"  overflow="visible"/>
		</clipPath>
		
			<linearGradient id="SVGID_31_" gradientUnits="userSpaceOnUse" x1="0.0029" y1="161.0068" x2="1.0029" y2="161.0068" gradientTransform="matrix(0 119.1733 -41.2177 0 6662.7207 4.75)">
			<stop  offset="0" style="stop-color:#BCBEC0"/>
			<stop  offset="0.18" style="stop-color:#DEDEDF"/>
			<stop  offset="0.36" style="stop-color:#FFFFFF"/>
			<stop  offset="0.51" style="stop-color:#FFFFFF"/>
			<stop  offset="0.58" style="stop-color:#FDFDFD"/>
			<stop  offset="0.66" style="stop-color:#FCFCFC"/>
			<stop  offset="0.83" style="stop-color:#E6E7E8"/>
			<stop  offset="1" style="stop-color:#D1D3D4"/>
		</linearGradient>
		<rect x="5.764" y="40.706" clip-path="url(#SVGID_30_)" fill="url(#SVGID_31_)" width="41.217" height="61.643"/>
	</g>
	<g clip-path="url(#SVGID_2_)">
		<defs>
			<path id="SVGID_32_" d="M73.572,38.466h-0.008h-0.008h-0.008h-0.008H73.53h-0.008h-0.008h-0.008h-0.007H73.49h-0.008h-0.007
				h-0.008h-0.008h-0.007h-0.008c-4.522,0.016-8.812,0.444-12.842,1.268c-4.03,0.82-7.798,2.292-11.266,4.376
				c-3.456,2.082-6.338,4.653-8.608,7.678c-2.269,3.025-3.874,6.299-4.82,9.81c-0.95,3.512-1.242,7.091-0.912,10.751
				c0.38,4.276,1.547,8.255,3.457,11.964c1.91,3.695,4.418,6.613,7.542,8.754c3.125,2.156,6.804,3.631,11.088,4.503
				c4.279,0.866,8.871,1.252,13.814,1.199c2.633-0.013,5.827-0.224,9.604-0.551c3.771-0.345,8.007-0.895,12.731-1.621
				C94.04,84.99,95.047,74.443,96.29,64.97c-3.346-0.116-7.509-0.252-12.522-0.35c-3.815-0.074-7.835-0.137-12.021-0.162
				c0.013,2.026-0.094,4.94-0.333,8.754c3.066-0.11,5.605-0.14,7.609-0.127c1.174,0.025,2.354,0.059,3.53,0.091
				c-0.324,4.993-0.646,9.976-0.96,14.959c-2.256,0.622-4.409,1.063-6.47,1.333c-2.076,0.278-3.865,0.422-5.386,0.44
				c-4.153,0.062-7.852-0.626-11.137-2.101c-3.288-1.469-5.7-3.576-7.253-6.381c-1.54-2.808-2.443-6.033-2.655-9.704
				c-0.191-3.287,0.234-6.52,1.339-9.664c1.097-3.157,2.833-5.836,5.213-8.041c2.379-2.192,5.284-3.839,8.695-4.921
				c3.42-1.076,7.078-1.63,10.952-1.63c6.007,0,12.741,1.248,20.023,3.803c-0.169-3.55-0.211-6.935-0.104-10.164
				C86.884,39.299,79.762,38.466,73.572,38.466"/>
		</defs>
		<clipPath id="SVGID_33_">
			<use xlink:href="#SVGID_32_"  overflow="visible"/>
		</clipPath>
		
			<linearGradient id="SVGID_34_" gradientUnits="userSpaceOnUse" x1="-0.0029" y1="161.002" x2="0.9971" y2="161.002" gradientTransform="matrix(0 118.7598 -61.6266 0 9987.5391 5.5625)">
			<stop  offset="0" style="stop-color:#BCBEC0"/>
			<stop  offset="0.18" style="stop-color:#DEDEDF"/>
			<stop  offset="0.36" style="stop-color:#FFFFFF"/>
			<stop  offset="0.51" style="stop-color:#FFFFFF"/>
			<stop  offset="0.58" style="stop-color:#FDFDFD"/>
			<stop  offset="0.66" style="stop-color:#FCFCFC"/>
			<stop  offset="0.83" style="stop-color:#E6E7E8"/>
			<stop  offset="1" style="stop-color:#D1D3D4"/>
		</linearGradient>
		<rect x="34.664" y="38.466" clip-path="url(#SVGID_33_)" fill="url(#SVGID_34_)" width="61.626" height="60.355"/>
	</g>
	<path clip-path="url(#SVGID_2_)" fill="#0060AD" d="M48.862,10.358c0,0.24-0.198,0.44-0.434,0.44c-0.24,0-0.445-0.2-0.445-0.44
		c0-0.233,0.205-0.432,0.445-0.432C48.665,9.926,48.862,10.125,48.862,10.358"/>
	<g clip-path="url(#SVGID_2_)">
		<text transform="matrix(1 0 0 1 161.4087 95.8945)"><tspan x="0" y="0" fill="#939393" font-family="'DINCondensed-Bold'" font-size="44.538">Gadget </tspan><tspan x="0" y="53.445" fill="#939393" font-family="'DINCondensed-Bold'" font-size="44.538">Protection</tspan></text>
	</g>
	<g clip-path="url(#SVGID_2_)">
	</g>
	<g clip-path="url(#SVGID_2_)">
		<text transform="matrix(1 0 0 1 161.3896 48.6377)" fill="#939393" font-family="'DINCondensed-Bold'" font-size="47.896">SuperGeeks</text>
	</g>
</g>
</svg>
